<?xml version="1.0" standalone="no"?>
<!DOCTYPE svg PUBLIC "-//W3C//DTD SVG 20010904//EN"
 "http://www.w3.org/TR/2001/REC-SVG-20010904/DTD/svg10.dtd">
<svg version="1.0" xmlns="http://www.w3.org/2000/svg"
 width="370.000000pt" height="370.000000pt" viewBox="0 0 370.000000 370.000000"
 preserveAspectRatio="xMidYMid meet">
<metadata>
Created by potrace 1.14, written by Peter Selinger 2001-2017
</metadata>
<g transform="translate(0.000000,370.000000) scale(0.100000,-0.100000)"
fill="#000000" stroke="none">
<path d="M923 1847 l-923 -1602 695 -3 c382 -1 1007 -1 1388 0 l692 3 -455
790 c-250 434 -459 790 -464 790 -4 0 -69 -104 -142 -232 l-134 -232 140 -243
140 -243 -387 -3 c-212 -1 -388 0 -390 2 -2 2 168 303 379 670 354 615 384
664 398 647 8 -10 265 -453 570 -984 l555 -966 358 -1 359 0 -34 59 c-192 341
-1814 3150 -1818 3150 -3 0 -420 -721 -927 -1602z"/>
</g>
</svg>
